<mxfile host="app.diagrams.net" modified="2022-02-17T10:13:54.104Z" agent="5.0 (Windows NT 10.0; Win64; x64) AppleWebKit/537.36 (KHTML, like Gecko) Chrome/97.0.4692.99 Safari/537.36" etag="3eXZmqlzMTHZsCL5Oq-O" version="16.5.6" type="github">
  <diagram id="xo4BFduI3su0-XFxN2ew" name="Page-1">
    <mxGraphModel dx="1497" dy="743" grid="1" gridSize="10" guides="1" tooltips="1" connect="1" arrows="1" fold="1" page="1" pageScale="1" pageWidth="827" pageHeight="1169" math="0" shadow="0">
      <root>
        <mxCell id="0" />
        <mxCell id="1" parent="0" />
        <mxCell id="s-R_cvrKQ6MxpAxQSWys-26" value="" style="rounded=0;whiteSpace=wrap;html=1;fillColor=#fff2cc;strokeColor=#d6b656;" vertex="1" parent="1">
          <mxGeometry x="10" y="600" width="590" height="90" as="geometry" />
        </mxCell>
        <mxCell id="s-R_cvrKQ6MxpAxQSWys-2" value="" style="rounded=0;whiteSpace=wrap;html=1;fillColor=#dae8fc;strokeColor=#6c8ebf;" vertex="1" parent="1">
          <mxGeometry x="10" y="10" width="590" height="250" as="geometry" />
        </mxCell>
        <mxCell id="s-R_cvrKQ6MxpAxQSWys-6" style="rounded=0;orthogonalLoop=1;jettySize=auto;html=1;exitX=0.13;exitY=0.77;exitDx=0;exitDy=0;exitPerimeter=0;entryX=0.75;entryY=0;entryDx=0;entryDy=0;dashed=1;" edge="1" parent="1" source="s-R_cvrKQ6MxpAxQSWys-1" target="s-R_cvrKQ6MxpAxQSWys-3">
          <mxGeometry relative="1" as="geometry" />
        </mxCell>
        <mxCell id="s-R_cvrKQ6MxpAxQSWys-11" value="获取商品" style="edgeLabel;html=1;align=center;verticalAlign=middle;resizable=0;points=[];" vertex="1" connectable="0" parent="s-R_cvrKQ6MxpAxQSWys-6">
          <mxGeometry x="-0.2281" relative="1" as="geometry">
            <mxPoint as="offset" />
          </mxGeometry>
        </mxCell>
        <mxCell id="s-R_cvrKQ6MxpAxQSWys-7" value="推送消息" style="edgeStyle=none;rounded=0;orthogonalLoop=1;jettySize=auto;html=1;exitX=0.96;exitY=0.7;exitDx=0;exitDy=0;exitPerimeter=0;entryX=0.5;entryY=0;entryDx=0;entryDy=0;dashed=1;" edge="1" parent="1" source="s-R_cvrKQ6MxpAxQSWys-1" target="s-R_cvrKQ6MxpAxQSWys-5">
          <mxGeometry relative="1" as="geometry" />
        </mxCell>
        <mxCell id="s-R_cvrKQ6MxpAxQSWys-8" style="edgeStyle=none;rounded=0;orthogonalLoop=1;jettySize=auto;html=1;entryX=1;entryY=0.5;entryDx=0;entryDy=0;dashed=1;" edge="1" parent="1" source="s-R_cvrKQ6MxpAxQSWys-1" target="s-R_cvrKQ6MxpAxQSWys-4">
          <mxGeometry relative="1" as="geometry" />
        </mxCell>
        <mxCell id="s-R_cvrKQ6MxpAxQSWys-9" value="操作下单" style="edgeLabel;html=1;align=center;verticalAlign=middle;resizable=0;points=[];" vertex="1" connectable="0" parent="s-R_cvrKQ6MxpAxQSWys-8">
          <mxGeometry x="-0.2582" relative="1" as="geometry">
            <mxPoint as="offset" />
          </mxGeometry>
        </mxCell>
        <mxCell id="s-R_cvrKQ6MxpAxQSWys-1" value="直播系统" style="ellipse;shape=cloud;whiteSpace=wrap;html=1;fillColor=#B266FF;" vertex="1" parent="1">
          <mxGeometry x="210" y="10" width="80" height="70" as="geometry" />
        </mxCell>
        <mxCell id="s-R_cvrKQ6MxpAxQSWys-3" value="商品系统" style="rounded=1;whiteSpace=wrap;html=1;fillColor=#eeeeee;strokeColor=#36393d;" vertex="1" parent="1">
          <mxGeometry x="70" y="120" width="70" height="50" as="geometry" />
        </mxCell>
        <mxCell id="s-R_cvrKQ6MxpAxQSWys-10" style="edgeStyle=none;rounded=0;orthogonalLoop=1;jettySize=auto;html=1;entryX=0.5;entryY=1;entryDx=0;entryDy=0;dashed=1;" edge="1" parent="1" source="s-R_cvrKQ6MxpAxQSWys-4" target="s-R_cvrKQ6MxpAxQSWys-3">
          <mxGeometry relative="1" as="geometry" />
        </mxCell>
        <mxCell id="s-R_cvrKQ6MxpAxQSWys-4" value="订单系统" style="rounded=1;whiteSpace=wrap;html=1;fillColor=#eeeeee;strokeColor=#36393d;" vertex="1" parent="1">
          <mxGeometry x="70" y="200" width="70" height="50" as="geometry" />
        </mxCell>
        <mxCell id="s-R_cvrKQ6MxpAxQSWys-5" value="推送系统" style="rounded=1;whiteSpace=wrap;html=1;fillColor=#eeeeee;strokeColor=#36393d;" vertex="1" parent="1">
          <mxGeometry x="320" y="110" width="66" height="60" as="geometry" />
        </mxCell>
        <mxCell id="s-R_cvrKQ6MxpAxQSWys-12" value="" style="rounded=0;whiteSpace=wrap;html=1;fillColor=#fff2cc;strokeColor=#d6b656;" vertex="1" parent="1">
          <mxGeometry x="10" y="280" width="590" height="80" as="geometry" />
        </mxCell>
        <mxCell id="s-R_cvrKQ6MxpAxQSWys-13" value="直播系统" style="ellipse;shape=cloud;whiteSpace=wrap;html=1;fillColor=#B266FF;" vertex="1" parent="1">
          <mxGeometry x="230" y="280" width="80" height="70" as="geometry" />
        </mxCell>
        <mxCell id="s-R_cvrKQ6MxpAxQSWys-14" value="" style="rounded=0;whiteSpace=wrap;html=1;fillColor=#d0cee2;strokeColor=#56517e;" vertex="1" parent="1">
          <mxGeometry x="10" y="380" width="590" height="200" as="geometry" />
        </mxCell>
        <mxCell id="s-R_cvrKQ6MxpAxQSWys-20" style="edgeStyle=none;rounded=0;orthogonalLoop=1;jettySize=auto;html=1;exitX=0.5;exitY=1;exitDx=0;exitDy=0;entryX=0.5;entryY=0;entryDx=0;entryDy=0;dashed=1;" edge="1" parent="1" source="s-R_cvrKQ6MxpAxQSWys-15" target="s-R_cvrKQ6MxpAxQSWys-18">
          <mxGeometry relative="1" as="geometry" />
        </mxCell>
        <mxCell id="s-R_cvrKQ6MxpAxQSWys-21" style="edgeStyle=none;rounded=0;orthogonalLoop=1;jettySize=auto;html=1;dashed=1;" edge="1" parent="1" source="s-R_cvrKQ6MxpAxQSWys-15" target="s-R_cvrKQ6MxpAxQSWys-17">
          <mxGeometry relative="1" as="geometry" />
        </mxCell>
        <mxCell id="s-R_cvrKQ6MxpAxQSWys-22" style="edgeStyle=none;rounded=0;orthogonalLoop=1;jettySize=auto;html=1;entryX=0.5;entryY=0;entryDx=0;entryDy=0;dashed=1;" edge="1" parent="1" source="s-R_cvrKQ6MxpAxQSWys-15" target="s-R_cvrKQ6MxpAxQSWys-19">
          <mxGeometry relative="1" as="geometry" />
        </mxCell>
        <mxCell id="s-R_cvrKQ6MxpAxQSWys-15" value="手机APP" style="rounded=1;whiteSpace=wrap;html=1;fillColor=#fa6800;fontColor=#000000;strokeColor=#C73500;" vertex="1" parent="1">
          <mxGeometry x="100" y="400" width="70" height="60" as="geometry" />
        </mxCell>
        <mxCell id="s-R_cvrKQ6MxpAxQSWys-23" style="edgeStyle=none;rounded=0;orthogonalLoop=1;jettySize=auto;html=1;entryX=0.92;entryY=0.018;entryDx=0;entryDy=0;entryPerimeter=0;dashed=1;" edge="1" parent="1" source="s-R_cvrKQ6MxpAxQSWys-16" target="s-R_cvrKQ6MxpAxQSWys-18">
          <mxGeometry relative="1" as="geometry" />
        </mxCell>
        <mxCell id="s-R_cvrKQ6MxpAxQSWys-24" style="edgeStyle=none;rounded=0;orthogonalLoop=1;jettySize=auto;html=1;entryX=0.855;entryY=0;entryDx=0;entryDy=4.35;entryPerimeter=0;dashed=1;" edge="1" parent="1" source="s-R_cvrKQ6MxpAxQSWys-16" target="s-R_cvrKQ6MxpAxQSWys-17">
          <mxGeometry relative="1" as="geometry" />
        </mxCell>
        <mxCell id="s-R_cvrKQ6MxpAxQSWys-25" style="edgeStyle=none;rounded=0;orthogonalLoop=1;jettySize=auto;html=1;dashed=1;" edge="1" parent="1" source="s-R_cvrKQ6MxpAxQSWys-16" target="s-R_cvrKQ6MxpAxQSWys-19">
          <mxGeometry relative="1" as="geometry" />
        </mxCell>
        <mxCell id="s-R_cvrKQ6MxpAxQSWys-16" value="直播WEB管理系统" style="rounded=1;whiteSpace=wrap;html=1;fillColor=#fa6800;fontColor=#000000;strokeColor=#C73500;" vertex="1" parent="1">
          <mxGeometry x="368" y="400" width="70" height="60" as="geometry" />
        </mxCell>
        <mxCell id="s-R_cvrKQ6MxpAxQSWys-17" value="mysql database" style="shape=cylinder3;whiteSpace=wrap;html=1;boundedLbl=1;backgroundOutline=1;size=15;fillColor=#1ba1e2;fontColor=#ffffff;strokeColor=#006EAF;" vertex="1" parent="1">
          <mxGeometry x="240" y="485" width="60" height="70" as="geometry" />
        </mxCell>
        <mxCell id="s-R_cvrKQ6MxpAxQSWys-18" value="redis" style="shape=dataStorage;whiteSpace=wrap;html=1;fixedSize=1;fillColor=#1ba1e2;fontColor=#ffffff;strokeColor=#006EAF;" vertex="1" parent="1">
          <mxGeometry x="92.5" y="490" width="85" height="60" as="geometry" />
        </mxCell>
        <mxCell id="s-R_cvrKQ6MxpAxQSWys-30" style="edgeStyle=none;rounded=0;orthogonalLoop=1;jettySize=auto;html=1;entryX=0.641;entryY=0.029;entryDx=0;entryDy=0;entryPerimeter=0;dashed=1;" edge="1" parent="1" source="s-R_cvrKQ6MxpAxQSWys-19" target="s-R_cvrKQ6MxpAxQSWys-27">
          <mxGeometry relative="1" as="geometry" />
        </mxCell>
        <mxCell id="s-R_cvrKQ6MxpAxQSWys-31" style="edgeStyle=none;rounded=0;orthogonalLoop=1;jettySize=auto;html=1;dashed=1;" edge="1" parent="1" source="s-R_cvrKQ6MxpAxQSWys-19" target="s-R_cvrKQ6MxpAxQSWys-29">
          <mxGeometry relative="1" as="geometry" />
        </mxCell>
        <mxCell id="s-R_cvrKQ6MxpAxQSWys-32" style="edgeStyle=none;rounded=0;orthogonalLoop=1;jettySize=auto;html=1;entryX=0.5;entryY=0;entryDx=0;entryDy=0;dashed=1;" edge="1" parent="1" source="s-R_cvrKQ6MxpAxQSWys-19" target="s-R_cvrKQ6MxpAxQSWys-28">
          <mxGeometry relative="1" as="geometry" />
        </mxCell>
        <mxCell id="s-R_cvrKQ6MxpAxQSWys-19" value="API-application" style="shape=process;whiteSpace=wrap;html=1;backgroundOutline=1;fillColor=#1ba1e2;fontColor=#ffffff;strokeColor=#006EAF;" vertex="1" parent="1">
          <mxGeometry x="360" y="495" width="86" height="50" as="geometry" />
        </mxCell>
        <mxCell id="s-R_cvrKQ6MxpAxQSWys-27" value="商品系统" style="rounded=1;whiteSpace=wrap;html=1;fillColor=#eeeeee;strokeColor=#36393d;" vertex="1" parent="1">
          <mxGeometry x="92.5" y="620" width="70" height="50" as="geometry" />
        </mxCell>
        <mxCell id="s-R_cvrKQ6MxpAxQSWys-28" value="推送系统" style="rounded=1;whiteSpace=wrap;html=1;fillColor=#eeeeee;strokeColor=#36393d;" vertex="1" parent="1">
          <mxGeometry x="380" y="610" width="66" height="60" as="geometry" />
        </mxCell>
        <mxCell id="s-R_cvrKQ6MxpAxQSWys-29" value="订单系统" style="rounded=1;whiteSpace=wrap;html=1;fillColor=#eeeeee;strokeColor=#36393d;" vertex="1" parent="1">
          <mxGeometry x="235" y="620" width="70" height="50" as="geometry" />
        </mxCell>
        <mxCell id="s-R_cvrKQ6MxpAxQSWys-33" value="" style="rounded=0;whiteSpace=wrap;html=1;fillColor=#d0cee2;strokeColor=#56517e;" vertex="1" parent="1">
          <mxGeometry x="10" y="730" width="590" height="90" as="geometry" />
        </mxCell>
        <mxCell id="s-R_cvrKQ6MxpAxQSWys-34" value="手机APP" style="rounded=1;whiteSpace=wrap;html=1;fillColor=#fa6800;fontColor=#000000;strokeColor=#C73500;" vertex="1" parent="1">
          <mxGeometry x="100" y="745" width="70" height="60" as="geometry" />
        </mxCell>
        <mxCell id="s-R_cvrKQ6MxpAxQSWys-35" value="直播WEB管理系统" style="rounded=1;whiteSpace=wrap;html=1;fillColor=#fa6800;fontColor=#000000;strokeColor=#C73500;" vertex="1" parent="1">
          <mxGeometry x="368" y="745" width="70" height="60" as="geometry" />
        </mxCell>
        <mxCell id="s-R_cvrKQ6MxpAxQSWys-36" value="" style="rounded=0;whiteSpace=wrap;html=1;fillColor=#fff2cc;strokeColor=#d6b656;" vertex="1" parent="1">
          <mxGeometry x="10" y="850" width="590" height="410" as="geometry" />
        </mxCell>
      </root>
    </mxGraphModel>
  </diagram>
</mxfile>
